<svg xmlns="http://www.w3.org/2000/svg" width="1200" height="900" viewBox="0 0 1200 900">
  <rect width="1200" height="900" fill="#f5f5f2"/>
  <rect x="70" y="70" width="1060" height="760" rx="16" fill="#ffffff" stroke="#dadada" stroke-width="3"/>
  <text x="120" y="160" font-family="Verdana, sans-serif" font-size="44" fill="#2d2d2d">ProgBooks Handwritten Notes - Page 2</text>
  <path d="M120 230 C220 220, 320 250, 420 235" stroke="#2f4f8f" stroke-width="4" fill="none"/>
  <path d="M120 290 C300 278, 450 305, 650 294" stroke="#2f4f8f" stroke-width="4" fill="none"/>
  <path d="M120 350 C260 340, 410 372, 590 360" stroke="#2f4f8f" stroke-width="4" fill="none"/>
  <path d="M120 410 C270 400, 410 430, 700 420" stroke="#2f4f8f" stroke-width="4" fill="none"/>
  <path d="M120 470 C250 460, 410 492, 620 480" stroke="#2f4f8f" stroke-width="4" fill="none"/>
  <path d="M120 530 C240 520, 390 550, 580 538" stroke="#2f4f8f" stroke-width="4" fill="none"/>
  <path d="M120 590 C220 580, 410 610, 720 600" stroke="#2f4f8f" stroke-width="4" fill="none"/>
  <path d="M120 650 C280 640, 420 675, 790 660" stroke="#2f4f8f" stroke-width="4" fill="none"/>
</svg>
